<svg width="85" height="71" viewBox="0 0 170 142" fill="none" xmlns="http://www.w3.org/2000/svg">
<path d="M44.9136 142C37.358 136.988 29.5226 131.002 21.4074 124.041C13.572 117.359 7.97531 111.512 4.61729 106.5C1.5391 101.488 0 95.9196 0 89.7941C0 76.151 15.6708 47.1941 47.0123 2.92352L79.7531 0C69.3992 21.7177 62.963 35.5 60.4444 41.3471C58.2058 46.9157 57.0864 51.3706 57.0864 54.7118C57.0864 57.4961 57.6461 60.002 58.7654 62.2294C60.1646 64.4569 62.5432 67.102 65.9012 70.1647L82.2716 84.7823C85.6296 68.9118 101.16 41.6255 128.864 2.92352L162.025 0C151.671 21.7177 145.235 35.5 142.716 41.3471C140.477 46.9157 139.358 51.3706 139.358 54.7118C139.358 57.4961 139.918 60.002 141.037 62.2294C142.436 64.4569 144.815 67.102 148.173 70.1647L170 89.3765C154.609 111.373 140.198 128.914 126.765 142C116.132 134.204 108.296 128.218 103.259 124.041C96.823 118.194 91.9259 113.322 88.5679 109.424C85.4897 105.247 83.5309 100.931 82.6914 96.4765C70.6584 113.739 58.0658 128.914 44.9136 142Z" fill="#FB3640"/>
</svg>

